<svg xmlns="http://www.w3.org/2000/svg" version="1.1" xmlns:xlink="http://www.w3.org/1999/xlink" xmlns:svgjs="http://svgjs.dev/svgjs" width="1500" height="2069" viewBox="0 0 1500 2069"><g transform="matrix(1,0,0,1,1.584136222106622,0.8376518218622095)"><svg viewBox="0 0 179 247" data-background-color="#636365" preserveAspectRatio="xMidYMid meet" height="2069" width="1500" xmlns="http://www.w3.org/2000/svg" xmlns:xlink="http://www.w3.org/1999/xlink"><g id="tight-bounds" transform="matrix(1,0,0,1,-0.1890402558380515,-0.09999999999999432)"><svg viewBox="0 0 179.3780805116761 247.2" height="247.2" width="179.3780805116761"><g><svg viewBox="0 0 395.52 545.064055324395" height="247.2" width="179.3780805116761"><g transform="matrix(1,0,0,1,0,295.0384728511254)"><svg viewBox="0 0 395.52 250.0255824732696" height="250.0255824732696" width="395.52"><g id="textblocktransform"><svg viewBox="0 0 395.52 250.0255824732696" height="250.0255824732696" width="395.52" id="textblock"><g><svg viewBox="0 0 395.52 152.80606677985284" height="152.80606677985284" width="395.52"><g transform="matrix(1,0,0,1,0,0)"><svg width="395.52" viewBox="2.59 -37.99 129.41 50" height="152.80606677985284" data-palette-color="#d2d6dc"><path d="M25.05-9.5L25.05-9.5Q25.05-4.79 21.63-2.15 18.21 0.49 12.35 0.49L12.35 0.49Q6.01 0.49 2.59-1.15L2.59-1.15 2.59-5.15Q4.79-4.22 7.37-3.69 9.96-3.15 12.5-3.15L12.5-3.15Q16.65-3.15 18.75-4.72 20.85-6.3 20.85-9.11L20.85-9.11Q20.85-10.96 20.1-12.15 19.36-13.33 17.61-14.33 15.87-15.33 12.3-16.6L12.3-16.6Q7.32-18.38 5.19-20.83 3.05-23.27 3.05-27.2L3.05-27.2Q3.05-31.32 6.15-33.76 9.25-36.21 14.36-36.21L14.36-36.21Q19.68-36.21 24.15-34.25L24.15-34.25 22.85-30.64Q18.43-32.5 14.26-32.5L14.26-32.5Q10.96-32.5 9.11-31.08 7.25-29.66 7.25-27.15L7.25-27.15Q7.25-25.29 7.93-24.11 8.62-22.92 10.24-21.94 11.87-20.95 15.21-19.75L15.21-19.75Q20.83-17.75 22.94-15.45 25.05-13.16 25.05-9.5ZM44.19 0.49L44.19 0.49Q41.57 0.49 39.41-0.48 37.25-1.44 35.79-3.44L35.79-3.44 35.5-3.44Q35.79-1.1 35.79 1L35.79 1 35.79 12.01 31.74 12.01 31.74-26.76 35.03-26.76 35.59-23.1 35.79-23.1Q37.35-25.29 39.43-26.27 41.5-27.25 44.19-27.25L44.19-27.25Q49.51-27.25 52.4-23.61 55.3-19.97 55.3-13.4L55.3-13.4Q55.3-6.81 52.35-3.16 49.41 0.49 44.19 0.49ZM43.6-23.8L43.6-23.8Q39.5-23.8 37.67-21.53 35.84-19.26 35.79-14.31L35.79-14.31 35.79-13.4Q35.79-7.76 37.67-5.33 39.55-2.91 43.7-2.91L43.7-2.91Q47.17-2.91 49.13-5.71 51.1-8.52 51.1-13.45L51.1-13.45Q51.1-18.46 49.13-21.13 47.17-23.8 43.6-23.8ZM81.83 0L78.83 0 78.02-3.81 77.83-3.81Q75.83-1.29 73.84-0.4 71.85 0.49 68.87 0.49L68.87 0.49Q64.89 0.49 62.63-1.56 60.37-3.61 60.37-7.4L60.37-7.4Q60.37-15.5 73.33-15.89L73.33-15.89 77.88-16.04 77.88-17.7Q77.88-20.85 76.52-22.35 75.17-23.85 72.19-23.85L72.19-23.85Q68.84-23.85 64.62-21.8L64.62-21.8 63.37-24.9Q65.35-25.98 67.71-26.59 70.06-27.2 72.43-27.2L72.43-27.2Q77.22-27.2 79.52-25.07 81.83-22.95 81.83-18.26L81.83-18.26 81.83 0ZM69.67-2.86L69.67-2.86Q73.46-2.86 75.62-4.93 77.78-7.01 77.78-10.74L77.78-10.74 77.78-13.16 73.73-12.99Q68.89-12.82 66.76-11.49 64.62-10.16 64.62-7.35L64.62-7.35Q64.62-5.15 65.95-4 67.28-2.86 69.67-2.86ZM102.39-27.25L102.39-27.25Q104.17-27.25 105.58-26.95L105.58-26.95 105.02-23.19Q103.36-23.56 102.09-23.56L102.09-23.56Q98.85-23.56 96.54-20.92 94.23-18.29 94.23-14.36L94.23-14.36 94.23 0 90.18 0 90.18-26.76 93.52-26.76 93.99-21.8 94.18-21.8Q95.67-24.41 97.77-25.83 99.87-27.25 102.39-27.25ZM114.39-13.7L114.59-13.7Q115.64-15.19 117.79-17.6L117.79-17.6 126.43-26.76 131.24-26.76 120.4-15.36 132 0 127.09 0 117.64-12.65 114.59-10.01 114.59 0 110.59 0 110.59-37.99 114.59-37.99 114.59-17.85Q114.59-16.5 114.39-13.7L114.39-13.7Z" opacity="1" transform="matrix(1,0,0,1,0,0)" fill="#d2d6dc" class="wordmark-text-0" data-fill-palette-color="primary" id="text-0"></path></svg></g></svg></g><g transform="matrix(1,0,0,1,0,188.8799118009734)"><svg viewBox="0 0 395.52 61.1456706722962" height="61.1456706722962" width="395.52"><g transform="matrix(1,0,0,1,0,0)"><svg width="395.52" viewBox="4.65 -37 307.87 47.6" height="61.1456706722962" data-palette-color="#97978d"><path d="M8.85-15L8.85 0 4.65 0 4.65-34.9 18.55-34.9Q23.15-34.9 25.73-32.35 28.3-29.8 28.3-25L28.3-25Q28.3-21.15 26.53-18.68 24.75-16.2 21.3-15.4L21.3-15.4 29.3 0 24.55 0 17-15 8.85-15ZM8.85-18.6L18.55-18.6Q21.05-18.6 22.43-19.9 23.8-21.2 23.8-23.6L23.8-23.6 23.8-26.2Q23.8-28.6 22.43-29.9 21.05-31.2 18.55-31.2L18.55-31.2 8.85-31.2 8.85-18.6ZM45.2 0.6L45.2 0.6Q42.55 0.6 40.42-0.35 38.3-1.3 36.77-3.08 35.25-4.85 34.42-7.33 33.6-9.8 33.6-12.9L33.6-12.9Q33.6-15.95 34.42-18.45 35.25-20.95 36.77-22.73 38.3-24.5 40.42-25.45 42.55-26.4 45.2-26.4L45.2-26.4Q47.8-26.4 49.85-25.45 51.9-24.5 53.35-22.83 54.8-21.15 55.57-18.85 56.35-16.55 56.35-13.8L56.35-13.8 56.35-11.9 37.8-11.9 37.8-10.7Q37.8-9.05 38.32-7.63 38.85-6.2 39.82-5.15 40.8-4.1 42.22-3.5 43.65-2.9 45.45-2.9L45.45-2.9Q47.9-2.9 49.72-4.05 51.55-5.2 52.55-7.35L52.55-7.35 55.4-5.3Q54.15-2.65 51.5-1.03 48.85 0.6 45.2 0.6ZM45.2-23.05L45.2-23.05Q43.55-23.05 42.2-22.48 40.85-21.9 39.87-20.85 38.9-19.8 38.35-18.38 37.8-16.95 37.8-15.25L37.8-15.25 37.8-14.9 52.05-14.9 52.05-15.45Q52.05-18.9 50.17-20.98 48.3-23.05 45.2-23.05ZM64.95-31.85L64.95-31.85Q63.65-31.85 63.07-32.48 62.5-33.1 62.5-34.1L62.5-34.1 62.5-34.75Q62.5-35.75 63.07-36.38 63.65-37 64.95-37L64.95-37Q66.25-37 66.82-36.38 67.4-35.75 67.4-34.75L67.4-34.75 67.4-34.1Q67.4-33.1 66.82-32.48 66.25-31.85 64.95-31.85ZM62.95 0L62.95-25.8 66.95-25.8 66.95 0 62.95 0ZM97.19 2.85L97.19 2.85Q97.19 6.85 94.07 8.72 90.94 10.6 84.69 10.6L84.69 10.6Q78.64 10.6 75.99 8.95 73.34 7.3 73.34 4.25L73.34 4.25Q73.34 2.15 74.44 0.98 75.54-0.2 77.44-0.75L77.44-0.75 77.44-1.3Q75.14-2.4 75.14-4.9L75.14-4.9Q75.14-6.85 76.39-7.88 77.64-8.9 79.59-9.4L79.59-9.4 79.59-9.6Q77.29-10.7 76.02-12.75 74.74-14.8 74.74-17.5L74.74-17.5Q74.74-19.45 75.44-21.1 76.14-22.75 77.42-23.93 78.69-25.1 80.47-25.75 82.24-26.4 84.44-26.4L84.44-26.4Q87.19-26.4 89.34-25.4L89.34-25.4 89.34-25.85Q89.34-27.35 90.04-28.33 90.74-29.3 92.34-29.3L92.34-29.3 96.19-29.3 96.19-25.8 91.29-25.8 91.29-24.15Q92.69-22.95 93.47-21.28 94.24-19.6 94.24-17.5L94.24-17.5Q94.24-15.55 93.54-13.9 92.84-12.25 91.57-11.08 90.29-9.9 88.49-9.25 86.69-8.6 84.49-8.6L84.49-8.6Q83.24-8.6 81.99-8.85L81.99-8.85Q80.69-8.5 79.64-7.83 78.59-7.15 78.59-5.95L78.59-5.95Q78.59-4.8 79.69-4.4 80.79-4 82.54-4L82.54-4 88.04-4Q92.84-4 95.02-2.18 97.19-0.35 97.19 2.85ZM93.44 3.15L93.44 3.15Q93.44 1.6 92.27 0.68 91.09-0.25 88.09-0.25L88.09-0.25 79.49-0.25Q77.09 0.85 77.09 3.25L77.09 3.25Q77.09 4.95 78.37 6.15 79.64 7.35 82.69 7.35L82.69 7.35 86.39 7.35Q89.74 7.35 91.59 6.3 93.44 5.25 93.44 3.15ZM84.49-11.8L84.49-11.8Q87.04-11.8 88.54-13.03 90.04-14.25 90.04-16.8L90.04-16.8 90.04-18.2Q90.04-20.75 88.54-21.98 87.04-23.2 84.49-23.2L84.49-23.2Q81.94-23.2 80.44-21.98 78.94-20.75 78.94-18.2L78.94-18.2 78.94-16.8Q78.94-14.25 80.44-13.03 81.94-11.8 84.49-11.8ZM105.84 0L101.84 0 101.84-25.8 105.84-25.8 105.84-21.6 106.04-21.6Q106.99-23.8 108.72-25.1 110.44-26.4 113.34-26.4L113.34-26.4Q117.34-26.4 119.67-23.83 121.99-21.25 121.99-16.55L121.99-16.55 121.99 0 117.99 0 117.99-15.85Q117.99-22.8 112.14-22.8L112.14-22.8Q110.94-22.8 109.82-22.5 108.69-22.2 107.79-21.6 106.89-21 106.37-20.08 105.84-19.15 105.84-17.9L105.84-17.9 105.84 0ZM132.24-31.85L132.24-31.85Q130.94-31.85 130.36-32.48 129.79-33.1 129.79-34.1L129.79-34.1 129.79-34.75Q129.79-35.75 130.36-36.38 130.94-37 132.24-37L132.24-37Q133.54-37 134.11-36.38 134.69-35.75 134.69-34.75L134.69-34.75 134.69-34.1Q134.69-33.1 134.11-32.48 133.54-31.85 132.24-31.85ZM130.24 0L130.24-25.8 134.24-25.8 134.24 0 130.24 0ZM153.44 0L148.44 0Q146.34 0 145.26-1.18 144.19-2.35 144.19-4.25L144.19-4.25 144.19-22.3 139.94-22.3 139.94-25.8 142.34-25.8Q143.64-25.8 144.11-26.33 144.59-26.85 144.59-28.15L144.59-28.15 144.59-32.95 148.19-32.95 148.19-25.8 153.84-25.8 153.84-22.3 148.19-22.3 148.19-3.5 153.44-3.5 153.44 0ZM169.78 0.6L169.78 0.6Q167.13 0.6 165.01-0.35 162.88-1.3 161.36-3.08 159.83-4.85 159.01-7.33 158.18-9.8 158.18-12.9L158.18-12.9Q158.18-15.95 159.01-18.45 159.83-20.95 161.36-22.73 162.88-24.5 165.01-25.45 167.13-26.4 169.78-26.4L169.78-26.4Q172.38-26.4 174.43-25.45 176.48-24.5 177.93-22.83 179.38-21.15 180.16-18.85 180.93-16.55 180.93-13.8L180.93-13.8 180.93-11.9 162.38-11.9 162.38-10.7Q162.38-9.05 162.91-7.63 163.43-6.2 164.41-5.15 165.38-4.1 166.81-3.5 168.23-2.9 170.03-2.9L170.03-2.9Q172.48-2.9 174.31-4.05 176.13-5.2 177.13-7.35L177.13-7.35 179.98-5.3Q178.73-2.65 176.08-1.03 173.43 0.6 169.78 0.6ZM169.78-23.05L169.78-23.05Q168.13-23.05 166.78-22.48 165.43-21.9 164.46-20.85 163.48-19.8 162.93-18.38 162.38-16.95 162.38-15.25L162.38-15.25 162.38-14.9 176.63-14.9 176.63-15.45Q176.63-18.9 174.76-20.98 172.88-23.05 169.78-23.05ZM221.58 0L221.58-15.8 203.93-15.8 203.93 0 199.73 0 199.73-34.9 203.93-34.9 203.93-19.5 221.58-19.5 221.58-34.9 225.78-34.9 225.78 0 221.58 0ZM244.43 0.6L244.43 0.6Q241.83 0.6 239.68-0.35 237.53-1.3 236-3.08 234.48-4.85 233.63-7.33 232.78-9.8 232.78-12.9L232.78-12.9Q232.78-15.95 233.63-18.45 234.48-20.95 236-22.73 237.53-24.5 239.68-25.45 241.83-26.4 244.43-26.4L244.43-26.4Q247.03-26.4 249.15-25.45 251.28-24.5 252.83-22.73 254.38-20.95 255.23-18.45 256.08-15.95 256.08-12.9L256.08-12.9Q256.08-9.8 255.23-7.33 254.38-4.85 252.83-3.08 251.28-1.3 249.15-0.35 247.03 0.6 244.43 0.6ZM244.43-2.95L244.43-2.95Q247.68-2.95 249.73-4.95 251.78-6.95 251.78-11.05L251.78-11.05 251.78-14.75Q251.78-18.85 249.73-20.85 247.68-22.85 244.43-22.85L244.43-22.85Q241.18-22.85 239.13-20.85 237.08-18.85 237.08-14.75L237.08-14.75 237.08-11.05Q237.08-6.95 239.13-4.95 241.18-2.95 244.43-2.95ZM262.67 10L262.67-25.8 266.67-25.8 266.67-21.6 266.87-21.6Q267.87-24.05 269.8-25.23 271.72-26.4 274.42-26.4L274.42-26.4Q276.82-26.4 278.77-25.45 280.72-24.5 282.1-22.75 283.47-21 284.2-18.5 284.92-16 284.92-12.9L284.92-12.9Q284.92-9.8 284.2-7.3 283.47-4.8 282.1-3.05 280.72-1.3 278.77-0.35 276.82 0.6 274.42 0.6L274.42 0.6Q269.17 0.6 266.87-4.2L266.87-4.2 266.67-4.2 266.67 10 262.67 10ZM273.32-3L273.32-3Q276.72-3 278.67-5.13 280.62-7.25 280.62-10.7L280.62-10.7 280.62-15.1Q280.62-18.55 278.67-20.68 276.72-22.8 273.32-22.8L273.32-22.8Q271.97-22.8 270.75-22.43 269.52-22.05 268.62-21.4 267.72-20.75 267.2-19.83 266.67-18.9 266.67-17.85L266.67-17.85 266.67-8.25Q266.67-7 267.2-6.03 267.72-5.05 268.62-4.38 269.52-3.7 270.75-3.35 271.97-3 273.32-3ZM301.37 0.6L301.37 0.6Q298.72 0.6 296.6-0.35 294.47-1.3 292.95-3.08 291.42-4.85 290.6-7.33 289.77-9.8 289.77-12.9L289.77-12.9Q289.77-15.95 290.6-18.45 291.42-20.95 292.95-22.73 294.47-24.5 296.6-25.45 298.72-26.4 301.37-26.4L301.37-26.4Q303.97-26.4 306.02-25.45 308.07-24.5 309.52-22.83 310.97-21.15 311.75-18.85 312.52-16.55 312.52-13.8L312.52-13.8 312.52-11.9 293.97-11.9 293.97-10.7Q293.97-9.05 294.5-7.63 295.02-6.2 296-5.15 296.97-4.1 298.4-3.5 299.82-2.9 301.62-2.9L301.62-2.9Q304.07-2.9 305.9-4.05 307.72-5.2 308.72-7.35L308.72-7.35 311.57-5.3Q310.32-2.65 307.67-1.03 305.02 0.6 301.37 0.6ZM301.37-23.05L301.37-23.05Q299.72-23.05 298.37-22.48 297.02-21.9 296.05-20.85 295.07-19.8 294.52-18.38 293.97-16.95 293.97-15.25L293.97-15.25 293.97-14.9 308.22-14.9 308.22-15.45Q308.22-18.9 306.35-20.98 304.47-23.05 301.37-23.05Z" opacity="1" transform="matrix(1,0,0,1,0,0)" fill="#97978d" class="slogan-text-1" data-fill-palette-color="secondary" id="text-1"></path></svg></g></svg></g></svg></g></svg></g><g transform="matrix(1,0,0,1,86.31460859555783,0)"><svg viewBox="0 0 222.89078280888432 222.89078280888432" height="222.89078280888432" width="222.89078280888432"><g><svg></svg></g><g id="icon-0"><svg viewBox="0 0 222.89078280888432 222.89078280888432" height="222.89078280888432" width="222.89078280888432"><g><path d="M0 111.445c0-61.55 49.896-111.445 111.445-111.445 61.55 0 111.445 49.896 111.446 111.445 0 61.55-49.896 111.445-111.446 111.446-61.55 0-111.445-49.896-111.445-111.446zM111.445 209.111c53.939 0 97.665-43.726 97.666-97.666 0-53.939-43.726-97.665-97.666-97.665-53.939 0-97.665 43.726-97.665 97.665 0 53.939 43.726 97.665 97.665 97.666z" data-fill-palette-color="accent" fill="#97978d" stroke="transparent"></path><ellipse rx="110.33093749039774" ry="110.33093749039774" cx="111.44539140444216" cy="111.44539140444216" fill="#97978d" stroke="transparent" stroke-width="0" fill-opacity="1" data-fill-palette-color="accent"></ellipse></g><g transform="matrix(1,0,0,1,73.81967826009563,51.02763210718509)"><svg viewBox="0 0 75.25142628869308 120.83551859451414" height="120.83551859451414" width="75.25142628869308"><g><svg xmlns="http://www.w3.org/2000/svg" xmlns:xlink="http://www.w3.org/1999/xlink" version="1.1" x="0" y="0" viewBox="21.266127515883948 3.8829095956773543 57.62084775569994 92.52509040432264" enable-background="new 0 0 100 100" xml:space="preserve" height="120.83551859451414" width="75.25142628869308" class="icon-cg-0" data-fill-palette-color="quaternary" id="cg-0"><g fill="#3d9970" data-fill-palette-color="quaternary"><g fill="#3d9970" data-fill-palette-color="quaternary"><g fill="#3d9970" data-fill-palette-color="quaternary"><path fill="#3d9970" d="M78.744 32.862C78.497 32.336 77.968 32 77.387 32H61.087l7.751-26.191c0.204-0.69-0.11-1.427-0.749-1.758-0.64-0.331-1.423-0.161-1.868 0.403l-31.62 40.117c-0.355 0.452-0.422 1.066-0.171 1.583S35.206 47 35.78 47h16.184l-9.276 26.136c-0.243 0.685 0.04 1.446 0.672 1.806 0.233 0.132 0.488 0.196 0.74 0.196 0.435 0 0.862-0.188 1.156-0.542l33.285-40.138C78.913 34.01 78.992 33.388 78.744 32.862zM48.342 66.174l7.159-20.173c0.163-0.459 0.093-0.969-0.188-1.367C55.032 44.237 54.575 44 54.088 44H38.873l24.875-31.559-6.106 20.633c-0.134 0.454-0.046 0.944 0.237 1.323C58.161 34.777 58.606 35 59.079 35h15.115L48.342 66.174zM37.466 63.187l1.472 3.024c0.233 0.479 0.712 0.757 1.211 0.757 0.198 0 0.398-0.044 0.588-0.136 0.668-0.325 0.947-1.131 0.621-1.8l-1.472-3.024c-0.326-0.668-1.132-0.947-1.8-0.621C37.419 61.712 37.141 62.518 37.466 63.187zM61.489 79.187l-3.179-1.095c-0.702-0.242-1.469 0.132-1.711 0.834-0.242 0.703 0.131 1.469 0.834 1.711l3.179 1.095c0.145 0.05 0.293 0.074 0.438 0.074 0.559 0 1.081-0.35 1.273-0.908C62.566 80.195 62.192 79.429 61.489 79.187zM41.764 80.037c-0.647-0.373-1.469-0.148-1.838 0.497l-3.37 5.87c-0.371 0.645-0.148 1.468 0.497 1.838 0.211 0.122 0.442 0.179 0.669 0.179 0.467 0 0.92-0.243 1.169-0.676l3.37-5.87C42.632 81.23 42.409 80.407 41.764 80.037zM35.793 90.447c-0.646-0.37-1.468-0.147-1.838 0.498l-1.978 3.446c-0.37 0.645-0.147 1.468 0.498 1.838 0.211 0.121 0.441 0.179 0.668 0.179 0.467 0 0.92-0.243 1.169-0.677l1.978-3.446C36.661 91.64 36.438 90.817 35.793 90.447zM27.242 70.225l6.356 2.193c0.146 0.05 0.293 0.074 0.439 0.074 0.559 0 1.081-0.35 1.273-0.908 0.242-0.703-0.131-1.469-0.834-1.712l-6.356-2.193c-0.705-0.241-1.47 0.131-1.712 0.834C26.166 69.215 26.539 69.982 27.242 70.225zM67.785 81.822l-1.965-0.68c-0.701-0.242-1.468 0.13-1.712 0.833-0.243 0.703 0.129 1.469 0.833 1.712l1.965 0.68c0.146 0.05 0.294 0.074 0.44 0.074 0.558 0 1.08-0.35 1.272-0.907C68.86 82.832 68.488 82.065 67.785 81.822zM68.172 63.807l-13.6 6.624c-0.669 0.326-0.947 1.131-0.621 1.8 0.233 0.479 0.712 0.757 1.211 0.757 0.198 0 0.399-0.044 0.588-0.136l13.6-6.624c0.669-0.326 0.947-1.131 0.621-1.8C69.646 63.759 68.839 63.482 68.172 63.807zM37.421 76.317c-0.327-0.669-1.131-0.947-1.8-0.621l-13.598 6.624c-0.668 0.326-0.946 1.132-0.621 1.8 0.233 0.479 0.712 0.757 1.211 0.757 0.198 0 0.399-0.044 0.589-0.136l13.598-6.624C37.469 77.792 37.747 76.986 37.421 76.317zM49.558 80.5c-0.326-0.669-1.132-0.946-1.8-0.621-0.668 0.325-0.947 1.131-0.621 1.8l3.604 7.401c0.233 0.479 0.712 0.757 1.211 0.757 0.198 0 0.398-0.044 0.588-0.136 0.668-0.325 0.947-1.131 0.621-1.8L49.558 80.5zM35.51 59.171c0.233 0.479 0.712 0.757 1.211 0.757 0.198 0 0.399-0.044 0.589-0.136 0.668-0.326 0.946-1.132 0.621-1.8l-2.944-6.042c-0.326-0.668-1.131-0.947-1.8-0.621-0.668 0.326-0.946 1.132-0.621 1.8L35.51 59.171z" data-fill-palette-color="quaternary"></path></g></g></g></svg></g></svg></g></svg></g></svg></g><g></g></svg></g><defs></defs></svg><rect width="179.3780805116761" height="247.2" fill="none" stroke="none" visibility="hidden"></rect></g></svg></g></svg>