<svg width="192" height="307" viewBox="0 0 192 307" fill="none" xmlns="http://www.w3.org/2000/svg">
<g clip-path="url(#clip0_5_227)">
<g clip-path="url(#clip1_5_227)">
<path d="M190.875 96.4181C190.058 94.6783 188.309 93.567 186.387 93.567H132.474L158.111 6.93854C158.785 4.65632 157.747 2.21864 155.633 1.12384C153.516 0.0290372 150.927 0.591323 149.455 2.45679L44.8696 135.146C43.6954 136.641 43.4738 138.672 44.304 140.382C45.1342 142.092 46.8707 143.18 48.7692 143.18H102.299L71.6179 229.627C70.8141 231.893 71.7502 234.41 73.8406 235.6C74.6112 236.037 75.4547 236.249 76.2882 236.249C77.7269 236.249 79.1393 235.627 80.1117 234.456L190.204 101.697C191.434 100.215 191.696 98.1579 190.875 96.4181ZM90.3188 206.6L113.998 139.876C114.537 138.358 114.305 136.671 113.376 135.355C112.446 134.042 110.935 133.258 109.324 133.258H58.9995L141.275 28.8743L121.079 97.1193C120.636 98.6209 120.927 100.242 121.863 101.495C122.796 102.752 124.268 103.49 125.832 103.49H175.826L90.3188 206.6ZM54.3458 196.72L59.2145 206.722C59.9852 208.306 61.5695 209.226 63.22 209.226C63.8749 209.226 64.5364 209.08 65.1648 208.776C67.3743 207.701 68.2971 205.035 67.2188 202.822L62.3501 192.82C61.2718 190.611 58.6059 189.688 56.3965 190.766C54.1903 191.841 53.2708 194.507 54.3458 196.72ZM133.803 249.641L123.289 246.019C120.967 245.219 118.43 246.456 117.629 248.778C116.829 251.103 118.063 253.637 120.388 254.437L130.903 258.059C131.382 258.224 131.872 258.304 132.351 258.304C134.2 258.304 135.927 257.146 136.562 255.3C137.366 252.975 136.129 250.441 133.803 249.641ZM68.5617 252.452C66.4217 251.219 63.7029 251.963 62.4824 254.096L51.3359 273.512C50.1088 275.645 50.8464 278.367 52.9798 279.591C53.6777 279.995 54.4417 280.183 55.1925 280.183C56.7372 280.183 58.2355 279.379 59.0591 277.947L70.2056 258.532C71.4327 256.398 70.6951 253.676 68.5617 252.452ZM48.8122 286.884C46.6755 285.66 43.9567 286.398 42.7329 288.531L36.1906 299.929C34.9668 302.063 35.7044 304.785 37.8377 306.009C38.5356 306.409 39.2964 306.601 40.0472 306.601C41.5918 306.601 43.0901 305.797 43.9137 304.361L50.4561 292.963C51.6832 290.83 50.9456 288.108 48.8122 286.884ZM20.5293 219.999L41.5521 227.252C42.035 227.417 42.5212 227.497 43.0041 227.497C44.8531 227.497 46.5796 226.339 47.2147 224.494C48.0151 222.168 46.7814 219.635 44.4562 218.831L23.4333 211.578C21.1015 210.78 18.5712 212.011 17.7707 214.336C16.9703 216.658 18.204 219.195 20.5293 219.999ZM154.628 258.356L148.128 256.107C145.81 255.307 143.273 256.537 142.466 258.862C141.662 261.188 142.893 263.721 145.221 264.525L151.72 266.774C152.203 266.94 152.693 267.019 153.176 267.019C155.021 267.019 156.748 265.861 157.383 264.019C158.183 261.697 156.953 259.16 154.628 258.356ZM155.908 198.771L110.925 220.68C108.712 221.758 107.793 224.421 108.871 226.634C109.642 228.218 111.226 229.137 112.876 229.137C113.531 229.137 114.196 228.992 114.821 228.688L159.804 206.778C162.017 205.7 162.936 203.037 161.858 200.825C160.783 198.612 158.114 197.696 155.908 198.771ZM54.1969 240.148C53.1154 237.936 50.4561 237.016 48.2433 238.094L3.26708 260.004C1.05762 261.082 0.13812 263.748 1.21308 265.957C1.98374 267.542 3.56807 268.461 5.21854 268.461C5.87344 268.461 6.53825 268.316 7.16669 268.011L52.1429 246.102C54.3557 245.027 55.2752 242.361 54.1969 240.148ZM94.3408 253.984C93.2626 251.771 90.5967 250.855 88.3872 251.93C86.1778 253.005 85.255 255.671 86.3332 257.883L98.2537 282.363C99.0244 283.947 100.609 284.867 102.259 284.867C102.914 284.867 103.576 284.721 104.204 284.417C106.413 283.342 107.336 280.676 106.258 278.463L94.3408 253.984ZM47.8762 183.437C48.6468 185.021 50.2312 185.941 51.8817 185.941C52.5366 185.941 53.2014 185.795 53.8298 185.491C56.0393 184.413 56.9588 181.747 55.8838 179.537L46.1463 159.553C45.0681 157.343 42.4055 156.421 40.1927 157.499C37.9833 158.577 37.0638 161.243 38.1387 163.453L47.8762 183.437Z" fill="#3D9970"/>
</g>
</g>
<defs>
<clipPath id="clip0_5_227">
<rect width="190.585" height="306.033" fill="white" transform="translate(0.763672 0.567871)"/>
</clipPath>
<clipPath id="clip1_5_227">
<rect width="190.585" height="306.033" fill="white" transform="translate(0.763672 0.567871)"/>
</clipPath>
</defs>
</svg>
